# xmcd
#
# Track frame offsets:
#	150
#	14590
#	25460
#	37415
#	50700
#	62415
#	78427
#	92570
#	102845
#	119970
#	134700
#	145705
#	161090
#	176880
#
# Disc length: 2533 seconds
#
# Revision: 1
# Processed by: cddbd v1.5.1PL2 Copyright (c) Steve Scherf et al.
# Submitted via: audiograbber 1.83.01
#
DISCID=d309e30e
DTITLE=Shaun Young - Red Hot Daddy
DYEAR=1900
DGENRE=Rockabilly
TTITLE0=Red Hot Daddy
TTITLE1=She Still Loves Me
TTITLE2=If I Can't Be a Lover I Don't Want To Be Your Friend
TTITLE3=What's the Deal Jack?
TTITLE4=High Voltage
TTITLE5=Phantom Rock and Roll
TTITLE6=Hey, Flat Get It
TTITLE7=I'm Slippin' In
TTITLE8=The End Is Near
TTITLE9=How Can I Turn Her Away
TTITLE10=Beg, Steal and Borrow
TTITLE11=Foolish Pride
TTITLE12=Right Here, Right Now, and Forever
TTITLE13=Rickety Shack (By the Railroad Track)
EXTD=
EXTT0=
EXTT1=
EXTT2=
EXTT3=
EXTT4=
EXTT5=
EXTT6=
EXTT7=
EXTT8=
EXTT9=
EXTT10=
EXTT11=
EXTT12=
EXTT13=
PLAYORDER=
